<svg xmlns="http://www.w3.org/2000/svg"  viewBox="0 0 100 100" width="100px" height="100px"><path fill="#c7ede6" d="M88.715,54.71c1.135-2.155,1.785-4.605,1.785-7.21c0-6.621-4.159-12.257-10.001-14.478 c0-0.008,0.001-0.015,0.001-0.022c0-11.598-9.402-21-21-21c-9.784,0-17.981,6.701-20.313,15.757 C37.711,27.272,36.138,27,34.5,27c-7.692,0-14.023,5.793-14.89,13.252c-5.204,1.1-9.11,5.716-9.11,11.248 C10.5,57.851,15.649,63,22,63c0.177,0,0.352-0.012,0.526-0.022C22.522,63.153,22.5,63.324,22.5,63.5 C22.5,74.822,31.678,84,43,84c6.437,0,12.175-2.972,15.934-7.614C61.112,78.611,64.14,80,67.5,80 c4.65,0,8.674-2.65,10.666-6.518C79.218,73.817,80.337,74,81.5,74c6.075,0,11-4.925,11-11 C92.5,59.689,91.03,56.727,88.715,54.71z"/><path fill="#fff" d="M13,50H3c-0.276,0-0.5-0.224-0.5-0.5S2.724,49,3,49h10c0.276,0,0.5,0.224,0.5,0.5 S13.277,50,13,50z"/><path fill="#fff" d="M16,50h-1c-0.276,0-0.5-0.224-0.5-0.5S14.724,49,15,49h1c0.276,0,0.5,0.224,0.5,0.5 S16.277,50,16,50z"/><path fill="#fff" d="M20.991,52H12c-0.276,0-0.5-0.224-0.5-0.5S11.724,51,12,51h8.991c0.276,0,0.5,0.224,0.5,0.5 S21.267,52,20.991,52z"/><path fill="#fff" d="M10,52H9c-0.276,0-0.5-0.224-0.5-0.5S8.724,51,9,51h1c0.276,0,0.5,0.224,0.5,0.5 S10.277,52,10,52z"/><path fill="#fff" d="M7,52H5c-0.276,0-0.5-0.224-0.5-0.5S4.724,51,5,51h2c0.276,0,0.5,0.224,0.5,0.5S7.277,52,7,52z"/><path fill="#fff" d="M13,54h-2c-0.276,0-0.5-0.224-0.5-0.5S10.724,53,11,53h2c0.276,0,0.5,0.224,0.5,0.5 S13.276,54,13,54z"/><path fill="#fff" d="M16,45c-0.177,0-0.823,0-1,0c-0.276,0-0.5,0.224-0.5,0.5c0,0.276,0.224,0.5,0.5,0.5 c0.177,0,0.823,0,1,0c0.276,0,0.5-0.224,0.5-0.5C16.5,45.224,16.276,45,16,45z"/><path fill="#fff" d="M16,47c-0.177,0-4.823,0-5,0c-0.276,0-0.5,0.224-0.5,0.5c0,0.276,0.224,0.5,0.5,0.5 c0.177,0,4.823,0,5,0c0.276,0,0.5-0.224,0.5-0.5C16.5,47.224,16.276,47,16,47z"/><path fill="#fff" d="M21,49c-0.177,0-2.823,0-3,0c-0.276,0-0.5,0.224-0.5,0.5c0,0.276,0.224,0.5,0.5,0.5 c0.177,0,2.823,0,3,0c0.276,0,0.5-0.224,0.5-0.5C21.5,49.224,21.276,49,21,49z"/><g><path fill="#fff" d="M70,23H60c-0.276,0-0.5-0.224-0.5-0.5S59.724,22,60,22h10c0.276,0,0.5,0.224,0.5,0.5 S70.276,23,70,23z"/><path fill="#fff" d="M74,23h-2c-0.276,0-0.5-0.224-0.5-0.5S71.724,22,72,22h2c0.276,0,0.5,0.224,0.5,0.5 S74.276,23,74,23z"/><path fill="#fff" d="M79,25H69c-0.276,0-0.5-0.224-0.5-0.5S68.724,24,69,24h10c0.276,0,0.5,0.224,0.5,0.5 S79.277,25,79,25z"/><path fill="#fff" d="M67,25h-1c-0.276,0-0.5-0.224-0.5-0.5S65.724,24,66,24h1c0.276,0,0.5,0.224,0.5,0.5 S67.276,25,67,25z"/><path fill="#fff" d="M63.97,25H62c-0.276,0-0.5-0.224-0.5-0.5S61.724,24,62,24h1.97c0.276,0,0.5,0.224,0.5,0.5 S64.246,25,63.97,25z"/><path fill="#fff" d="M73,21h-5c-0.276,0-0.5-0.224-0.5-0.5S67.724,20,68,20h5c0.276,0,0.5,0.224,0.5,0.5 S73.277,21,73,21z"/><path fill="#fff" d="M70,27h-2c-0.276,0-0.5-0.224-0.5-0.5S67.724,26,68,26h2c0.276,0,0.5,0.224,0.5,0.5 S70.276,27,70,27z"/></g><g><path fill="#fdfcef" d="M45.896,53.948c-0.14-2.636-2.302-4.736-4.973-4.736c-2.761,0-5,2.239-5,5 c0,0.446,0.077,0.87,0.187,1.282c-0.642-0.777-1.6-1.282-2.687-1.282c-1.781,0-3.234,1.335-3.455,3.055 c-0.181-0.022-0.358-0.055-0.545-0.055c-2.485,0-4.5,2.015-4.5,4.5s2.015,4.5,4.5,4.5s9.5,0,9.5,0h6h3L45.896,53.948z"/><path fill="#472b29" d="M46.24,52.877c-0.598-2.404-2.762-4.164-5.317-4.164c-3.033,0-5.5,2.467-5.5,5.5v0.047 c-0.602-0.354-1.29-0.547-2-0.547c-1.831,0-3.411,1.261-3.858,3.005c-0.047-0.003-0.094-0.005-0.142-0.005c-2.757,0-5,2.243-5,5 s2.243,5,5,5h15.5c0.276,0,0.5-0.224,0.5-0.5s-0.224-0.5-0.5-0.5h-15.5c-2.206,0-4-1.794-4-4s1.794-4,4-4 c0.117,0,0.23,0.017,0.343,0.032l0.141,0.019c0.021,0.003,0.041,0.004,0.062,0.004c0.246,0,0.462-0.185,0.495-0.437 c0.191-1.493,1.463-2.618,2.959-2.618c0.885,0,1.723,0.401,2.301,1.1c0.098,0.118,0.241,0.182,0.386,0.182 c0.078,0,0.156-0.018,0.228-0.056c0.209-0.107,0.314-0.346,0.254-0.573c-0.116-0.436-0.17-0.802-0.17-1.153 c0-2.481,2.019-4.5,4.5-4.5c2.381,0,4.347,1.872,4.474,4.263c0.011,0.208,0.15,0.387,0.349,0.45 c0.05,0.016,0.101,0.024,0.152,0.024c0.15,0,0.296-0.069,0.392-0.192c0.028-0.036,0.065-0.061,0.094-0.096 C46.361,53.668,46.322,52.807,46.24,52.877z"/><path fill="#472b29" d="M39.423,55.713c-1.403,0-2.609,0.999-2.913,2.341c-0.367-0.222-0.786-0.341-1.212-0.341 c-1.202,0-2.198,0.897-2.353,2.068c-0.203-0.045-0.396-0.068-0.585-0.068c-1.529,0-2.811,1.2-2.918,2.732 c-0.009,0.138,0.094,0.257,0.232,0.267c0.006,0,0.012,0,0.018,0c0.13,0,0.24-0.101,0.249-0.232 c0.089-1.271,1.151-2.268,2.419-2.268c0.229,0,0.47,0.042,0.738,0.127c0.022,0.007,0.045,0.01,0.067,0.01 c0.055,0,0.11-0.02,0.156-0.054c0.064-0.047,0.102-0.129,0.102-0.209c0-1.034,0.841-1.875,1.875-1.875 c0.447,0,0.885,0.168,1.231,0.473c0.047,0.041,0.106,0.063,0.165,0.063c0.032,0,0.063-0.006,0.093-0.019 c0.088-0.035,0.148-0.117,0.155-0.212c0.102-1.292,1.191-2.305,2.479-2.305c0.208,0,0.425,0.034,0.682,0.107 c0.023,0.007,0.047,0.01,0.07,0.01c0.109,0,0.207-0.073,0.239-0.182c0.038-0.133-0.039-0.271-0.172-0.309 C39.94,55.753,39.679,55.713,39.423,55.713L39.423,55.713z"/></g><g><path fill="#fdfcef" d="M75.22,74.144c0,0,1.567,0,3.5,0s3.5-1.567,3.5-3.5c0-1.781-1.335-3.234-3.055-3.455 c0.028-0.179,0.055-0.358,0.055-0.545c0-1.933-1.567-3.5-3.5-3.5c-1.032,0-1.95,0.455-2.59,1.165 c-0.384-1.808-1.987-3.165-3.91-3.165c-2.209,0-4,1.791-4,4c0,0.191,0.03,0.374,0.056,0.558 c-0.428-0.344-0.965-0.558-1.556-0.558c-1.228,0-2.245,0.887-2.455,2.055c-0.179-0.028-0.358-0.055-0.545-0.055 c-1.933,0-3.5,1.567-3.5,3.5s1.567,3.5,3.5,3.5s7.5,0,7.5,0v0.5h7V74.144z"/><path fill="#472b29" d="M76.97,69.644c-0.138,0-0.25-0.112-0.25-0.25c0-1.223,0.995-2.218,2.218-2.218 c0.034,0.009,0.737-0.001,1.244,0.136c0.133,0.036,0.212,0.173,0.176,0.306c-0.036,0.134-0.173,0.213-0.306,0.176 c-0.444-0.12-1.1-0.12-1.113-0.118c-0.948,0-1.719,0.771-1.719,1.718C77.22,69.532,77.109,69.644,76.97,69.644z"/><circle cx="70.22" cy="74.144" r=".5" fill="#472b29"/><path fill="#472b29" d="M78.72,74.644h-3.5c-0.276,0-0.5-0.224-0.5-0.5s0.224-0.5,0.5-0.5h3.5c1.654,0,3-1.346,3-3 c0-1.496-1.125-2.768-2.618-2.959c-0.134-0.018-0.255-0.088-0.336-0.196s-0.115-0.244-0.094-0.377 c0.024-0.153,0.049-0.308,0.049-0.468c0-1.654-1.346-3-3-3c-0.85,0-1.638,0.355-2.219,1c-0.125,0.139-0.321,0.198-0.5,0.148 c-0.182-0.049-0.321-0.195-0.36-0.379c-0.341-1.604-1.779-2.769-3.42-2.769c-1.93,0-3.5,1.57-3.5,3.5 c0,0.143,0.021,0.28,0.041,0.418c0.029,0.203-0.063,0.438-0.242,0.54c-0.179,0.102-0.396,0.118-0.556-0.01 c-0.365-0.293-0.794-0.448-1.243-0.448c-0.966,0-1.792,0.691-1.963,1.644c-0.048,0.267-0.296,0.446-0.569,0.405 c-0.153-0.024-0.308-0.049-0.468-0.049c-1.654,0-3,1.346-3,3s1.346,3,3,3h7.5c0.276,0,0.5,0.224,0.5,0.5s-0.224,0.5-0.5,0.5 h-7.5c-2.206,0-4-1.794-4-4s1.794-4,4-4c0.059,0,0.116,0.002,0.174,0.006c0.414-1.186,1.537-2.006,2.826-2.006 c0.349,0,0.689,0.061,1.011,0.18c0.165-2.333,2.115-4.18,4.489-4.18c1.831,0,3.466,1.127,4.153,2.774 c0.68-0.499,1.502-0.774,2.347-0.774c2.206,0,4,1.794,4,4c0,0.048-0.001,0.095-0.004,0.142c1.743,0.448,3.004,2.027,3.004,3.858 C82.72,72.849,80.926,74.644,78.72,74.644z"/><path fill="#472b29" d="M73.22,73.644c-0.159,0-0.841,0-1,0c-0.276,0-0.5,0.224-0.5,0.5c0,0.276,0.224,0.5,0.5,0.5 c0.159,0,0.841,0,1,0c0.276,0,0.5-0.224,0.5-0.5C73.72,73.867,73.496,73.644,73.22,73.644z"/></g><g><path fill="#8889b9" d="M49.499,30.5c0,0,5.001,0,5.001,5c0,0,0-5,5-5c0,0-5,0-5-6C54.5,24.5,54.5,30.5,49.499,30.5z"/><path fill="#472b29" d="M54.5,36.2c-0.387,0-0.7-0.313-0.7-0.7c0-4.154-3.862-4.297-4.303-4.3h-0.001 c-0.386-0.002-0.697-0.314-0.697-0.7c0-0.378,0.3-0.687,0.676-0.7l0,0c0.001,0,0.003,0,0.004,0h0.001c0.002,0,0.004,0,0.006,0 h0.001c0.001,0,0.002,0,0.004,0l0,0c0.006-0.001,0.006-0.001,0.009,0c4.233,0,4.3-5.084,4.301-5.301c0,0,0,0,0-0.001 c0.001-0.386,0.314-0.698,0.7-0.698c0.378,0,0.687,0.3,0.699,0.675c-0.001-0.001-0.001,0.002,0.001,0.004c0,0,0,0,0,0 c0,0,0,0.001,0,0.002v0c0,0,0,0.001,0,0.002v0c0,0.001,0,0.002,0,0.002c0,0.002,0,0.004,0,0.006c0,0.001,0,0.001,0,0.002 c0-0.001,0,0.002,0,0.004c0,5.196,4.118,5.298,4.303,5.3c0.385,0.001,0.697,0.314,0.697,0.7c0,0.378-0.301,0.687-0.676,0.7l0,0 c0,0-0.001,0-0.002,0l0,0c-0.001,0-0.002,0-0.002,0H59.52c-0.001,0-0.001,0-0.002,0l0,0c-0.001,0-0.001,0-0.002,0l0,0 c-0.001,0-0.002,0-0.002,0h-0.001c-0.001,0-0.001,0-0.001,0c-0.001,0-0.001,0-0.001,0c-0.001,0-0.001,0-0.002,0c0,0,0,0-0.001,0 h-0.001h-0.001h-0.001c-0.002,0-0.003,0-0.005,0c-4.251,0-4.3,4.124-4.3,4.3C55.2,35.887,54.887,36.2,54.5,36.2z M52.296,30.477 c0.867,0.436,1.688,1.114,2.234,2.123c0.458-0.868,1.164-1.678,2.208-2.202c-0.847-0.481-1.704-1.25-2.272-2.479 C54.013,28.923,53.318,29.862,52.296,30.477z"/></g><g><path fill="#8889b9" d="M37.5,38.5c0,0-2.576-0.636-4-2c-0.548-0.525-0.904-2.096,0-3c1.442-1.442,5.543-2.394,11-3 l3.999,4c0,0-10.786-0.819-11.999,1C35.549,36.927,37.5,38.5,37.5,38.5z"/><path fill="#472b29" d="M37.5,39.2c-0.056,0-0.111-0.007-0.168-0.021c-0.112-0.028-2.775-0.698-4.316-2.174 c-0.458-0.439-0.76-1.237-0.768-2.032c-0.009-0.773,0.261-1.472,0.757-1.968c1.463-1.462,5.197-2.509,11.418-3.201 c0.212-0.021,0.423,0.051,0.572,0.201l3.999,4c0.207,0.207,0.264,0.521,0.141,0.787c-0.122,0.266-0.396,0.429-0.688,0.406 c-5.015-0.38-10.774-0.194-11.364,0.69c-0.58,0.871,0.843,2.055,0.857,2.067c0.256,0.206,0.333,0.562,0.188,0.856 C38.007,39.053,37.762,39.2,37.5,39.2z M44.243,31.233c-6.98,0.803-9.428,1.941-10.248,2.762 c-0.293,0.292-0.351,0.685-0.348,0.963c0.005,0.497,0.2,0.905,0.337,1.036c0.462,0.443,1.073,0.805,1.665,1.086 c-0.194-0.622-0.174-1.305,0.269-1.969c1.103-1.655,7.207-1.606,10.776-1.426L44.243,31.233z"/></g><g><path fill="#8889b9" d="M72.947,35.5c-1.213-1.819-11.999-1-11.999-1l3.999-4c5.457,0.606,9.558,1.558,11,3 c0.904,0.904,0.548,2.475,0,3c-1.424,1.364-4,2-4,2S73.898,36.927,72.947,35.5z"/><path fill="#472b29" d="M71.946,39.2c-0.262,0-0.507-0.147-0.627-0.389c-0.146-0.294-0.067-0.65,0.188-0.856 c0.013-0.011,1.433-1.205,0.857-2.066c0,0,0,0-0.001,0c-0.588-0.884-6.351-1.07-11.363-0.69c-0.298,0.023-0.567-0.14-0.688-0.406 c-0.122-0.266-0.066-0.58,0.141-0.787l3.999-4c0.15-0.15,0.364-0.221,0.572-0.201c6.221,0.691,9.955,1.738,11.418,3.201 c0.497,0.497,0.766,1.197,0.758,1.971c-0.009,0.795-0.311,1.592-0.77,2.03c-1.54,1.476-4.203,2.146-4.315,2.174 C72.058,39.193,72.002,39.2,71.946,39.2z M73.528,35.111c0.443,0.664,0.463,1.347,0.27,1.969c0.591-0.281,1.202-0.643,1.664-1.085 c0.137-0.131,0.332-0.538,0.337-1.035c0.003-0.279-0.055-0.672-0.348-0.965c-0.82-0.82-3.269-1.959-10.248-2.762l-2.451,2.452 C66.321,33.505,72.426,33.457,73.528,35.111L73.528,35.111z"/></g><g><path fill="#8889b9" d="M55.5,39.5c-8.172-0.188-15.806,6.07-16,14c-0.005,0.217-0.005-0.218,0,0 c0,10.336,6.608,17.5,17.281,17.5c4.652,0,7.759-1.497,10.199-4.519c0,0,0-5.108,0-6.327c0-2.812,3.294-2.654,3.294-2.654h-15 c0,0,6,0.249,6,3c0,1.219,0,6,0,6c-0.729,0.707-3.463,1.091-4.493,1.063c-8.361,0-10.59-10.08-10.59-13.736S48.198,42.5,56.5,42.5 c9.419,0.609,11,9,11,9v-10c-1.813-0.038-3.361-0.371-5.068-0.967C60.23,39.789,57.831,39.41,55.5,39.5z"/><path fill="#472b29" d="M56.781,71.7c-10.73,0-17.948-7.282-17.981-18.127c-0.002-0.024-0.004-0.049-0.004-0.074 c0-0.031,0.003-0.062,0.007-0.094c0.269-8.141,7.883-14.794,16.691-14.605c2.35-0.088,4.829,0.281,7.162,1.07 c1.771,0.619,3.222,0.896,4.858,0.931c0.381,0.008,0.686,0.319,0.686,0.7v10c0,0.361-0.274,0.662-0.634,0.696 c-0.354,0.027-0.687-0.211-0.754-0.565c-0.062-0.321-1.614-7.867-10.357-8.432c-7.556,0.001-9.563,6.953-9.563,10.628 c0,2.586,1.76,13.035,9.89,13.035c1.004,0.026,3.026-0.312,3.793-0.719V60.5c0-1.567-3.591-2.227-5.329-2.301 c-0.381-0.016-0.679-0.333-0.67-0.714c0.008-0.381,0.318-0.686,0.699-0.686h14.797c0.139-0.002,0.222,0.001,0.236,0.001 c0.38,0.019,0.676,0.336,0.667,0.716c-0.01,0.38-0.32,0.684-0.7,0.684h-0.188c-0.375,0.011-1.338,0.096-1.921,0.656 c-0.326,0.313-0.485,0.738-0.485,1.298v6.326c0,0.16-0.055,0.315-0.155,0.439C64.893,70.182,61.479,71.7,56.781,71.7z M40.2,53.515C40.213,63.719,46.719,70.3,56.781,70.3c4.206,0,7.146-1.257,9.498-4.07v-6.075c0-0.768,0.202-1.423,0.603-1.954 h-6.277c0.804,0.536,1.37,1.277,1.37,2.3v6c0,0.189-0.077,0.371-0.213,0.503c-0.971,0.94-3.999,1.294-5,1.26 c-8.511,0-11.271-9.726-11.271-14.436c0-4.16,2.301-12.027,11.009-12.027c5.783,0.374,8.794,3.551,10.3,6.144v-5.772 c-1.513-0.095-2.959-0.404-4.599-0.978c-2.174-0.734-4.488-1.08-6.674-0.994c-0.014,0-0.027,0-0.044,0 c-0.114-0.002-0.229-0.004-0.344-0.004C47.316,40.196,40.377,46.343,40.2,53.515z"/></g></svg>